<?xml version="1.0" standalone="no"?>
<!DOCTYPE svg PUBLIC "-//W3C//DTD SVG 20010904//EN"
 "http://www.w3.org/TR/2001/REC-SVG-20010904/DTD/svg10.dtd">
<svg version="1.0" xmlns="http://www.w3.org/2000/svg"
 width="4298.000000pt" height="1788.000000pt" viewBox="0 0 4298.000000 1788.000000"
 preserveAspectRatio="xMidYMid meet">

<g transform="translate(0.000000,1788.000000) scale(0.100000,-0.100000)"
fill="#000000" stroke="none">
<path d="M13654 17721 c-754 -6 -772 -6 -794 -26 -22 -20 -22 -23 -15 -170 3
-82 10 -481 14 -885 9 -779 8 -800 -36 -800 -2989 -3 -4035 0 -4061 14 -16 8
-87 77 -158 153 -71 76 -219 230 -330 343 -110 113 -218 225 -240 250 -21 25
-127 135 -234 246 -107 111 -262 274 -345 364 -82 89 -176 191 -208 226 -33
35 -79 72 -105 85 -217 102 -237 109 -326 109 -114 0 -283 -19 -329 -37 -23
-9 -78 -49 -122 -87 -78 -70 -623 -618 -944 -951 -91 -93 -273 -278 -406 -410
-133 -132 -277 -282 -319 -332 -43 -51 -81 -93 -86 -93 -9 0 -223 -215 -528
-530 -119 -123 -284 -292 -367 -375 -82 -83 -319 -324 -525 -535 -956 -978
-1058 -1081 -1260 -1277 -119 -115 -313 -318 -372 -388 -18 -22 -75 -81 -127
-130 -172 -164 -504 -498 -631 -634 -157 -169 -165 -177 -281 -283 -63 -57
-105 -105 -123 -140 -16 -29 -48 -78 -71 -109 -88 -113 -111 -193 -101 -344 7
-116 27 -191 76 -291 47 -96 118 -168 258 -261 87 -58 97 -62 208 -83 129 -24
167 -22 279 12 99 31 167 72 308 187 137 111 234 208 330 326 35 44 118 131
184 193 66 61 149 149 184 193 41 52 112 122 201 195 78 66 166 150 205 197
59 72 241 264 443 467 56 56 195 184 234 215 7 6 43 47 80 93 37 46 110 127
164 180 53 53 170 171 258 262 88 91 189 193 225 228 35 34 141 141 234 237
94 96 379 386 635 644 444 447 940 954 1155 1179 55 58 127 130 160 161 127
119 308 307 330 341 13 20 45 56 71 81 51 46 154 151 203 207 25 27 36 32 76
32 70 0 106 -22 202 -128 48 -53 117 -126 153 -162 36 -36 93 -96 125 -135 33
-38 141 -153 240 -255 99 -102 236 -243 305 -313 69 -71 132 -136 141 -146 9
-9 42 -47 74 -86 32 -38 134 -146 226 -238 92 -92 182 -188 201 -213 41 -57
91 -108 193 -199 43 -38 105 -101 138 -140 33 -38 153 -167 268 -286 114 -118
228 -240 252 -270 25 -30 85 -93 134 -140 49 -47 124 -128 168 -180 44 -52
154 -170 246 -264 351 -359 498 -512 544 -565 25 -30 95 -103 153 -161 59 -59
154 -157 212 -220 58 -62 179 -185 269 -273 92 -91 197 -205 239 -261 41 -55
163 -188 271 -297 108 -108 270 -274 361 -368 247 -258 227 -242 359 -288 64
-23 138 -46 164 -52 33 -7 1283 -10 4075 -10 4229 0 4058 -2 4165 39 30 12
147 90 186 125 13 11 47 53 77 92 175 235 200 453 82 704 -59 124 -130 221
-249 340 -116 115 -190 198 -354 395 -60 72 -145 173 -191 225 -45 52 -113
132 -150 177 -38 46 -128 147 -200 225 -71 79 -148 168 -171 198 -22 30 -91
111 -154 180 -63 69 -154 179 -203 245 -82 110 -165 204 -392 445 -44 47 -105
119 -136 160 -30 41 -92 113 -137 160 -45 47 -119 132 -164 190 -45 58 -100
123 -123 145 -39 39 -182 201 -257 293 -99 122 -231 276 -321 376 -54 61 -129
151 -166 201 -38 49 -93 115 -123 145 -29 30 -102 111 -162 179 -163 185 -241
239 -383 267 -66 13 -235 15 -1166 13 l-1089 -3 -18 23 c-18 22 -19 61 -19
926 0 1047 14 937 -118 940 -42 1 -424 -1 -848 -4z"/>
<path d="M8655 11219 c-539 -4 -1464 -9 -2055 -12 -1023 -5 -1152 -8 -1192
-28 -24 -13 -12 -36 25 -48 21 -7 417 -12 1129 -15 1202 -4 1156 -2 1150 -61
-4 -48 -3 -159 1 -175 2 -8 7 -22 10 -30 16 -42 37 -156 46 -250 7 -68 9 -589
7 -1477 -4 -1233 -6 -1375 -20 -1404 -9 -18 -16 -43 -16 -56 0 -27 -26 -32
-33 -5 -4 16 -5 16 -6 -1 -1 -11 -6 -15 -13 -11 -8 5 -9 0 -5 -17 4 -13 7 -31
7 -40 0 -9 16 -32 35 -52 41 -43 43 -54 11 -67 -13 -5 -27 -13 -30 -19 -11
-17 -108 -31 -226 -32 -442 -4 -1750 -1 -1895 5 -73 3 -95 -2 -95 -21 0 -8 -4
-11 -10 -8 -5 3 -10 -1 -10 -9 0 -18 12 -26 59 -38 45 -13 1941 -30 3448 -32
l1122 -1 21 21 21 20 -1 1810 c0 1650 1 1817 16 1897 17 86 17 89 -3 114 -10
15 -33 31 -49 36 -39 12 -297 13 -1449 6z"/>
<path d="M7640 10210 c0 -5 7 -10 15 -10 8 0 15 5 15 10 0 6 -7 10 -15 10 -8
0 -15 -4 -15 -10z"/>
<path d="M7653 10125 c0 -27 2 -38 4 -22 2 15 2 37 0 50 -2 12 -4 0 -4 -28z"/>
<path d="M7640 10061 c0 -5 6 -11 13 -14 9 -3 9 -9 0 -25 -8 -13 -9 -30 -3
-48 l8 -29 1 28 c1 15 6 27 11 27 6 0 10 16 10 35 0 28 -4 35 -20 35 -11 0
-20 -4 -20 -9z"/>
<path d="M35465 8425 c-128 -13 -145 -19 -324 -108 -88 -44 -112 -62 -159
-117 -31 -36 -84 -94 -117 -130 -88 -93 -196 -285 -228 -405 -9 -33 -21 -121
-26 -195 -12 -152 -8 -2466 4 -2540 10 -61 65 -259 81 -291 7 -14 33 -50 57
-80 24 -30 62 -82 85 -116 55 -81 247 -231 377 -293 117 -56 546 -98 736 -71
115 16 255 61 369 118 86 44 101 56 167 134 78 93 117 118 161 103 33 -12 158
-174 174 -226 16 -55 52 -81 103 -75 61 9 66 22 59 172 -3 71 -9 489 -13 929
-6 639 -5 815 5 885 28 182 17 208 -86 220 -36 3 -257 4 -491 1 -402 -5 -428
-6 -448 -24 -19 -18 -21 -30 -21 -147 0 -91 4 -130 13 -136 6 -4 149 -10 317
-13 305 -6 359 -12 361 -44 5 -83 -4 -855 -12 -921 -21 -189 -66 -285 -200
-428 -91 -97 -147 -139 -211 -158 -127 -36 -407 -55 -623 -41 -124 8 -135 11
-220 51 -153 72 -265 171 -324 288 -11 23 -35 79 -51 125 l-31 83 0 1296 c0
961 3 1308 11 1340 28 102 113 227 218 317 74 64 117 85 265 130 l122 37 220
0 c239 0 331 -12 437 -59 135 -60 249 -171 321 -312 34 -67 77 -284 77 -389 0
-46 3 -90 6 -99 14 -36 127 -42 270 -15 81 16 88 29 74 141 -38 310 -53 371
-127 513 -61 118 -206 280 -328 366 -80 57 -224 140 -274 159 -95 37 -530 50
-776 25z"/>
<path d="M19830 8410 c-31 -3 -68 -13 -83 -23 l-27 -17 -4 -2053 c-2 -1128 -7
-2072 -11 -2097 -5 -38 -3 -50 13 -70 l20 -25 971 0 c864 0 972 2 986 16 31
30 22 274 -11 310 -15 17 -58 18 -793 17 -581 -1 -782 2 -798 10 -37 20 -48
79 -35 181 13 97 16 3645 3 3691 -14 50 -100 72 -231 60z"/>
<path d="M31945 8414 c-12 -3 -33 -15 -48 -27 l-27 -22 -1 -2110 c0 -1996 1
-2110 17 -2122 22 -16 257 -18 301 -3 46 17 56 44 43 124 -7 47 -10 680 -10
2089 1 1923 0 2022 -16 2034 -10 7 -34 18 -54 23 -41 12 -176 21 -205 14z"/>
<path d="M12936 8391 c-15 -17 -16 -169 -17 -2136 0 -1164 3 -2120 6 -2123 12
-12 126 -21 205 -15 141 10 167 33 150 135 -6 40 -10 471 -10 1189 0 754 -3
1151 -11 1204 -12 91 1 196 31 235 18 24 19 24 38 7 11 -10 23 -32 26 -50 4
-17 19 -57 35 -87 16 -30 34 -80 40 -110 15 -71 91 -295 147 -433 24 -59 44
-115 44 -125 0 -18 42 -139 79 -227 30 -74 95 -250 211 -575 58 -163 138 -368
185 -470 19 -41 47 -120 63 -175 17 -55 44 -138 62 -185 17 -47 42 -126 55
-177 28 -110 39 -131 71 -143 38 -15 121 -12 153 5 33 16 43 40 66 149 16 75
63 210 120 346 26 62 48 124 156 435 26 77 64 183 84 235 20 52 53 142 72 200
51 148 102 292 113 315 66 147 98 233 111 299 5 27 31 99 58 160 57 129 98
244 148 411 45 154 92 211 125 153 10 -17 12 -70 9 -208 -2 -102 -4 -673 -5
-1270 -1 -597 -5 -1113 -10 -1147 l-9 -61 31 -16 c24 -12 62 -16 161 -16 126
0 176 9 183 34 2 6 1 864 -2 1906 -3 1042 -1 1990 3 2105 8 208 8 210 -14 228
-26 21 -90 22 -130 2 -44 -23 -76 -83 -110 -207 -16 -62 -46 -151 -65 -198
-20 -47 -48 -121 -64 -165 -15 -44 -32 -91 -38 -105 -41 -95 -98 -247 -118
-310 -12 -41 -48 -140 -79 -220 -32 -80 -80 -208 -107 -285 -27 -77 -58 -162
-68 -190 -10 -27 -41 -115 -68 -195 -27 -80 -73 -201 -102 -270 -53 -126 -63
-153 -107 -290 -14 -41 -34 -94 -44 -118 -38 -84 -261 -698 -277 -762 -27
-108 -90 -200 -137 -200 -26 0 -37 23 -56 115 -7 33 -21 79 -30 102 -10 23
-32 91 -49 150 -17 59 -48 149 -70 198 -77 176 -207 526 -235 635 -9 34 -46
126 -83 204 -36 78 -87 209 -113 291 -60 190 -147 441 -232 665 -36 96 -91
247 -122 335 -31 88 -76 207 -99 265 -63 154 -112 292 -141 400 -37 138 -66
170 -156 170 -32 0 -51 -6 -63 -19z"/>
<path d="M17763 8390 c-19 -11 -35 -31 -39 -47 -11 -49 -31 -124 -68 -253 -20
-69 -36 -132 -36 -142 0 -16 -67 -242 -121 -404 -16 -49 -41 -143 -54 -208
-14 -65 -35 -143 -46 -174 -11 -32 -34 -102 -50 -157 -17 -55 -51 -163 -76
-240 -25 -77 -56 -183 -68 -235 -25 -101 -71 -260 -111 -376 -13 -39 -31 -105
-39 -145 -9 -41 -36 -132 -60 -204 -24 -71 -51 -163 -60 -204 -8 -40 -29 -107
-46 -150 -17 -42 -44 -134 -60 -204 -26 -114 -74 -273 -193 -632 -20 -60 -48
-153 -61 -205 -30 -116 -42 -145 -71 -179 -40 -47 -36 -77 14 -98 47 -20 275
-23 320 -4 43 18 47 28 122 336 12 50 48 173 81 275 32 102 65 218 73 258 9
49 21 81 35 95 l22 22 647 3 c437 2 659 0 683 -7 47 -14 64 -42 72 -116 8 -73
55 -259 97 -380 35 -102 86 -297 95 -366 9 -59 37 -106 73 -120 39 -15 277
-12 310 3 39 19 39 50 -1 102 -19 25 -39 64 -45 88 -6 24 -30 120 -52 213 -23
94 -61 231 -85 305 -24 74 -53 169 -65 210 -11 41 -36 127 -56 190 -19 63 -53
174 -74 246 -21 71 -46 148 -55 170 -9 21 -25 78 -35 126 -11 48 -31 117 -45
153 -13 36 -36 110 -49 163 -14 53 -49 174 -80 267 -30 94 -63 204 -74 245
-18 68 -60 212 -202 695 -28 94 -62 219 -76 279 -14 60 -42 156 -63 215 -37
101 -95 298 -142 479 -17 64 -28 88 -51 107 -36 31 -90 33 -135 5z m120 -922
c9 -18 23 -76 32 -128 19 -111 57 -269 84 -355 21 -65 84 -294 106 -386 8 -31
45 -152 84 -270 38 -118 74 -243 81 -279 23 -126 61 -255 100 -341 34 -73 40
-96 40 -152 0 -101 -6 -104 -155 -95 -66 5 -310 7 -543 6 l-424 -3 -24 28
c-13 15 -24 40 -24 53 0 14 20 76 44 137 24 62 56 155 71 207 14 52 47 167 72
255 24 88 61 212 80 275 19 63 48 162 64 220 183 658 220 779 249 828 25 41
44 41 63 0z"/>
<path d="M22421 8399 c-25 -5 -49 -13 -55 -19 -8 -8 -11 -613 -12 -2043 -1
-1118 -3 -2067 -5 -2111 -3 -68 -1 -80 16 -92 27 -20 2316 -21 2355 -1 20 10
26 21 28 57 6 77 -9 250 -23 263 -10 10 -212 13 -1000 12 l-987 -2 -15 24
c-14 20 -16 118 -16 799 0 773 0 775 21 796 20 21 22 21 772 19 510 -1 764 2
791 9 51 14 56 29 57 164 1 103 -1 109 -24 133 l-26 25 -781 -3 c-632 -3 -786
-1 -805 9 -23 13 -23 15 -15 125 13 176 7 1225 -7 1308 -7 38 -9 80 -6 93 13
51 -2 50 1058 56 916 5 989 6 1004 22 16 16 17 26 6 106 -7 49 -12 121 -12
159 0 53 -4 74 -17 84 -13 12 -203 14 -1137 16 -620 0 -1141 -3 -1165 -8z"/>
<path d="M25510 8398 c-25 -5 -49 -13 -53 -17 -4 -4 -9 -941 -10 -2082 -2
-1141 -6 -2089 -10 -2107 -6 -29 -3 -35 26 -52 28 -17 50 -20 165 -20 102 0
140 4 164 16 l31 16 -7 116 c-3 65 -7 457 -8 872 l-1 755 34 18 c31 16 59 18
280 15 193 -2 250 -6 263 -17 9 -8 33 -46 52 -84 19 -38 44 -82 55 -96 49 -63
102 -138 116 -166 9 -16 48 -79 88 -140 40 -60 92 -143 116 -184 50 -83 54
-90 92 -148 15 -24 27 -46 27 -50 0 -3 7 -14 15 -24 17 -17 175 -268 175 -276
0 -3 19 -30 43 -61 24 -31 70 -102 102 -157 32 -55 78 -125 101 -155 23 -30
55 -86 71 -124 15 -38 39 -77 53 -88 32 -23 119 -37 248 -40 89 -3 104 0 129
18 15 12 29 28 31 36 2 9 -20 42 -48 74 -29 33 -58 70 -65 84 -7 14 -48 75
-90 135 -42 60 -110 166 -151 235 -41 69 -116 191 -167 271 -51 80 -127 202
-170 270 -43 68 -96 147 -117 174 -22 28 -70 99 -107 158 -37 60 -95 147 -130
194 -103 141 -97 149 185 227 51 14 98 26 104 26 21 0 154 73 214 119 138 103
214 189 313 350 131 214 146 283 146 681 0 320 -4 348 -69 521 -46 123 -163
305 -254 395 -100 101 -304 226 -396 244 -34 6 -104 22 -155 36 -52 13 -136
29 -185 34 -120 13 -1187 11 -1246 -2z m1515 -411 c116 -39 167 -77 268 -202
100 -123 131 -181 152 -282 33 -163 26 -596 -11 -748 -8 -33 -31 -84 -52 -114
-58 -84 -185 -214 -240 -244 -66 -36 -216 -74 -327 -83 -107 -8 -947 -8 -975
1 -10 3 -22 15 -25 26 -4 11 -8 370 -10 797 -1 427 -4 795 -6 816 -7 66 -11
66 606 63 l540 -3 80 -27z"/>
<path d="M28758 8403 c-14 -2 -31 -10 -37 -17 -8 -10 -13 -605 -15 -2077 -3
-1135 -5 -2084 -6 -2108 0 -28 5 -50 16 -62 17 -18 56 -19 1163 -18 865 0
1155 3 1181 12 l35 12 -4 125 c-2 69 -7 135 -12 147 -18 48 7 47 -1028 48
-966 0 -973 1 -990 21 -15 18 -16 90 -15 797 1 604 4 780 14 791 6 9 28 19 49
23 20 4 374 7 788 7 l752 1 23 23 c21 20 23 34 26 130 4 125 -6 147 -73 162
-51 12 -1100 12 -1300 1 -166 -10 -227 -4 -258 27 -20 21 -20 27 -19 684 1
431 -2 690 -9 740 -13 93 -3 118 59 136 29 9 281 12 978 12 531 0 952 4 969 9
73 22 77 31 50 110 -13 35 -14 57 -5 121 13 92 3 124 -43 140 -29 10 -2224 13
-2289 3z"/>
<path d="M38772 8399 c-39 -11 -46 -26 -67 -139 -9 -47 -31 -130 -50 -185 -19
-55 -43 -136 -54 -180 -11 -44 -47 -165 -80 -270 -32 -104 -68 -233 -81 -285
-19 -85 -109 -390 -145 -495 -8 -22 -27 -92 -44 -155 -16 -63 -39 -148 -50
-187 -12 -40 -30 -106 -41 -145 -12 -40 -39 -131 -62 -203 -103 -331 -202
-659 -223 -745 -9 -36 -32 -119 -52 -185 -19 -66 -46 -158 -58 -205 -13 -47
-47 -152 -75 -235 -28 -82 -64 -211 -79 -285 -18 -83 -42 -164 -63 -210 -49
-105 -53 -125 -28 -150 21 -21 52 -24 208 -20 83 2 139 17 159 42 6 7 14 49
18 93 10 113 35 216 120 480 40 127 76 254 80 283 8 62 30 87 83 96 20 3 326
6 680 6 l644 0 29 -29 c24 -25 29 -38 29 -79 0 -28 14 -93 33 -153 19 -57 42
-140 52 -184 9 -44 35 -142 56 -218 21 -76 43 -167 49 -202 13 -83 26 -111 59
-124 14 -6 87 -12 162 -13 122 -3 139 -1 158 16 25 23 27 56 5 97 -16 31 -65
193 -104 339 -12 47 -42 146 -67 220 -25 74 -57 182 -73 240 -55 205 -135 479
-195 670 -19 58 -50 166 -70 240 -20 74 -45 162 -56 195 -11 33 -47 155 -80
270 -33 116 -73 244 -89 286 -16 41 -36 109 -45 150 -9 41 -41 151 -71 246
-30 95 -65 221 -79 280 -13 59 -54 203 -90 318 -36 116 -75 246 -86 290 -45
176 -119 399 -136 410 -43 25 -79 29 -131 14z m92 -931 c8 -13 19 -43 25 -68
6 -25 22 -79 36 -120 15 -41 32 -102 40 -135 20 -92 143 -543 171 -626 18 -56
60 -215 85 -324 37 -167 80 -314 120 -415 70 -177 80 -211 77 -253 -2 -32 -9
-44 -26 -53 -16 -8 -167 -10 -535 -8 -282 1 -520 3 -529 3 -10 1 -27 10 -38
21 -33 33 -25 89 41 290 33 102 70 230 80 285 11 55 30 134 43 175 13 41 27
91 30 110 4 19 25 91 46 160 63 202 98 327 130 465 17 72 42 164 54 205 13 41
29 109 36 150 15 94 27 127 54 145 28 21 43 19 60 -7z"/>
<path d="M40727 8398 c-15 -12 -17 -179 -22 -2093 -3 -1144 -5 -2096 -5 -2115
1 -69 -63 -64 918 -70 488 -3 920 -2 961 1 65 5 77 9 99 34 16 19 22 35 17 49
-3 12 -8 63 -11 115 -3 52 -10 101 -16 108 -31 38 -34 38 -821 38 l-769 0 -17
21 c-15 19 -17 53 -15 350 1 181 3 1048 4 1928 2 1340 0 1601 -12 1612 -31 31
-275 48 -311 22z"/>
<path d="M7642 8303 c1 -10 0 -34 -2 -53 l-2 -35 -8 30 -8 30 -2 -30 -2 -30
-8 30 c-6 25 -8 21 -9 -25 0 -39 2 -51 9 -40 9 13 10 13 10 0 0 -13 1 -13 10
0 9 15 11 13 14 -12 0 -6 6 -13 13 -15 17 -6 26 38 19 89 -3 24 -6 51 -7 61 0
9 -7 17 -15 17 -7 0 -13 -8 -12 -17z"/>
<path d="M3087 7030 c-111 -4 -141 -8 -150 -21 -9 -11 -12 -110 -12 -348 1
-405 -10 -378 141 -362 66 7 1258 10 3598 9 l3498 0 22 21 c21 21 21 26 17
329 -3 321 -8 353 -48 366 -24 7 -6888 13 -7066 6z"/>
<path d="M6501 6043 c-2607 -2 -3558 -6 -3567 -14 -9 -8 -14 -34 -14 -78 1
-109 17 -205 60 -343 22 -72 40 -137 40 -145 0 -15 72 -154 115 -224 26 -40
88 -106 125 -131 14 -10 57 -40 95 -68 92 -65 175 -106 255 -124 36 -8 110
-31 166 -50 112 -40 173 -47 584 -66 472 -22 777 -46 896 -70 144 -30 288 -78
334 -111 37 -27 153 -164 186 -220 39 -67 66 -133 80 -195 8 -38 24 -105 34
-149 11 -44 24 -125 30 -180 5 -55 19 -174 30 -265 16 -133 20 -227 20 -486 0
-177 -4 -344 -9 -371 -10 -50 -22 -216 -41 -556 -8 -155 -15 -197 -49 -330
-22 -83 -44 -188 -50 -232 -6 -44 -23 -134 -36 -200 -32 -151 -43 -362 -25
-461 33 -177 105 -321 252 -501 90 -111 130 -133 418 -230 31 -10 88 -16 180
-16 123 -1 141 1 200 25 276 110 376 189 500 396 108 181 115 214 115 537 -1
257 -1 261 -32 390 -46 188 -105 510 -147 795 -35 238 -49 960 -26 1385 13
247 16 263 106 551 58 185 80 213 245 313 101 60 169 85 271 101 41 6 99 18
129 26 32 9 127 19 234 24 99 5 275 13 390 19 660 35 605 28 845 98 183 54
180 52 341 159 133 87 128 82 242 261 60 93 88 155 127 279 73 236 88 407 41
445 -18 15 -37 18 -80 17 -31 -2 -1655 -4 -3610 -5z m259 -4788 c57 -30 148
-129 160 -177 15 -53 -2 -185 -31 -245 -25 -52 -84 -101 -146 -119 -62 -19
-177 -17 -238 4 -89 30 -185 184 -185 297 0 86 96 217 181 248 61 23 210 18
259 -8z"/>
</g>
</svg>
